<?xml version="1.0" encoding="UTF-8"?>
<!DOCTYPE svg PUBLIC "-//W3C//DTD SVG 1.1//EN" "http://www.w3.org/Graphics/SVG/1.1/DTD/svg11.dtd">
<!-- Creator: CorelDRAW 2019 (64-Bit) -->
<svg xmlns="http://www.w3.org/2000/svg" xml:space="preserve" width="207.589mm" height="40.4612mm" version="1.1" style="shape-rendering:geometricPrecision; text-rendering:geometricPrecision; image-rendering:optimizeQuality; fill-rule:evenodd; clip-rule:evenodd"
viewBox="0 0 21920.12 4272.45"
 xmlns:xlink="http://www.w3.org/1999/xlink"
 xmlns:xodm="http://www.corel.com/coreldraw/odm/2003">
 <defs>
  <style type="text/css">
   <![CDATA[
    .fil0 {fill:#0096FF}
   ]]>
  </style>
 </defs>
 <g id="Layer_x0020_1">
  <metadata id="CorelCorpID_0Corel-Layer"/>
  <path class="fil0" d="M5612.64 3267.07l-921.78 0 0 -1552.26 921.78 0 0 336.98 -502.56 0 0 243.49 465.25 0 0 336.97 -465.25 0 0 293.5 502.56 0 0 341.32zm-5260.76 897.81l3500.6 0 0 107.57 -3500.6 0 0 -107.57zm-192.77 -216.52l3886.15 0 0 107.57 -3886.15 0 0 -107.57zm2882.34 -3948.36l0.01 0c151.19,0 274.89,123.7 274.89,274.88l0 624.24c0,151.18 -123.7,274.88 -274.89,274.88l-0.01 0c-151.18,0 -274.87,-123.69 -274.87,-274.88l0 -624.24c0,-151.19 123.68,-274.88 274.87,-274.88zm-1866.29 0l0.01 0c151.19,0 274.89,123.7 274.89,274.88l0 624.24c0,151.18 -123.7,274.88 -274.89,274.88l-0.01 0c-151.18,0 -274.87,-123.69 -274.87,-274.88l0 -624.24c0,-151.19 123.68,-274.88 274.87,-274.88zm-1175.16 766.65l742.76 0 0 158.53c0,235.41 192.59,428 428,428l0 0c235.41,0 428,-192.59 428,-428l0 -158.53 1006.84 0 0 158.53c0,235.41 192.59,428 428,428l0 0c235.41,0 428,-192.59 428,-428l0 -158.53 742.76 0 0 3073.1 -4204.37 0 0 -3073.1zm2214.61 2500.42l-495.68 0 -148.56 -676.49c-6.88,-28.26 -18.11,-84.42 -33.33,-168.84 -15.23,-84.06 -26.45,-154.36 -33.34,-211.25 -5.8,46.02 -14.86,103.27 -27.54,171.75 -13.05,68.12 -25.36,130.81 -37.69,188.42 -12.32,57.25 -64.14,289.51 -154.36,696.41l-496.04 0 -384.08 -1552.26 404.36 0 168.86 778.31c38.05,172.11 64.5,309.07 78.63,410.89 9.06,-72.11 25.36,-170.3 49.28,-294.22 23.55,-123.92 45.65,-226.47 66.3,-307.99l136.97 -587 388.43 0 132.62 587c22.83,94.2 45.66,202.91 68.85,326.11 23.55,123.19 39.13,215.22 46.74,276.1 9.43,-78.63 34.42,-214.86 75.37,-408.72l172.11 -780.48 404.37 0 -382.27 1552.26zm1585.73 -1058.75c0,173.55 -51.1,307.26 -153.27,401.83 -102.54,94.57 -247.84,141.68 -435.89,141.68l-118.13 0 0 515.25 -419.22 0 0 -1552.26 537.35 0c196.02,0 343.13,42.75 441.69,128.28 98.19,85.87 147.47,207.62 147.47,365.24zm-707.29 202.18l76.46 0c63.04,0 113.41,-17.75 150.37,-52.9 37.32,-35.51 55.8,-84.42 55.8,-146.74 0,-104.72 -57.97,-156.89 -174.28,-156.89l-108.34 0 0 356.54zm17915.78 291.32l0 565.24 -419.22 0 0 -1552.26 508.72 0c421.76,0 632.64,152.91 632.64,458.36 0,179.72 -87.69,318.86 -263.07,417.05l452.21 676.85 -475.39 0 -329.36 -565.24 -106.53 0zm0 -315.24l78.63 0c146.75,0 220.31,-64.86 220.31,-194.21 0,-106.89 -72.11,-160.15 -215.96,-160.15l-82.98 0 0 354.36zm-535.48 880.48l-921.78 0 0 -1552.26 921.78 0 0 336.98 -502.56 0 0 243.49 465.25 0 0 336.97 -465.25 0 0 293.5 502.56 0 0 341.32zm-1752.93 -908.74l669.6 0 0 837c-181.9,62.32 -381.54,93.48 -599.67,93.48 -239.15,0 -423.94,-69.21 -554.38,-207.99 -130.45,-138.77 -195.67,-336.61 -195.67,-593.5 0,-250.74 71.38,-445.68 214.14,-585.18 143.12,-139.5 343.13,-209.07 600.75,-209.07 97.46,0 189.87,9.05 276.47,27.53 86.6,18.48 161.96,41.68 226.46,69.93l-132.62 329.01c-111.6,-55.45 -234.43,-82.98 -368.13,-82.98 -122.48,0 -217.05,39.85 -283.71,119.56 -67.04,79.35 -100.37,193.13 -100.37,341.32 0,144.94 30.07,255.45 90.58,331.54 60.52,76.09 147.83,114.14 261.61,114.14 62.32,0 119.57,-6.16 171.75,-18.12l0 -242.76 -276.82 0 0 -323.93zm-1094.21 908.74l-76.09 -291.32 -504.37 0 -78.27 291.32 -460.9 0 506.19 -1558.78 559.45 0 512.71 1558.78 -458.72 0zm-163.41 -634.82l-66.67 -255.08c-15.59,-56.52 -34.42,-129.72 -56.89,-219.57 -22.1,-90.23 -36.96,-154.36 -43.84,-193.49 -6.52,36.23 -19.2,95.66 -37.68,178.63 -18.85,82.61 -60.52,246.02 -125.01,489.51l330.1 0zm-968.84 634.82l-550.03 0 -566.69 -1093.54 -9.43 0c13.41,172.12 19.94,303.28 19.94,393.86l0 699.68 -371.39 0 0 -1552.26 547.85 0 564.53 1078.68 6.52 0c-10.15,-156.53 -14.86,-281.89 -14.86,-376.83l0 -701.85 373.57 0 0 1552.26zm-1948.96 0l-76.09 -291.32 -504.37 0 -78.27 291.32 -460.9 0 506.19 -1558.78 559.45 0 512.71 1558.78 -458.72 0zm-163.41 -634.82l-66.67 -255.08c-15.59,-56.52 -34.42,-129.72 -56.89,-219.57 -22.1,-90.23 -36.96,-154.36 -43.84,-193.49 -6.52,36.23 -19.2,95.66 -37.68,178.63 -18.85,82.61 -60.52,246.02 -125.01,489.51l330.1 0zm-2058.75 634.82l-317.76 -1118.18 -9.42 0c14.85,190.59 22.1,338.43 22.1,443.86l0 674.31 -371.39 0 0 -1552.26 558.36 0 323.93 1102.24 8.69 0 317.42 -1102.24 559.45 0 0 1552.26 -385.52 0 0 -680.47c0,-35.51 0.72,-74.64 1.81,-118.13 1.09,-43.11 5.8,-148.92 14.14,-317.4l-9.43 0 -313.42 1116 -398.93 0zm-1620.68 0l-419.23 0 0 -1208.76 -379.37 0 0 -343.5 1176.87 0 0 343.5 -378.28 0 0 1208.76zm-952.17 0l-550.03 0 -566.69 -1093.54 -9.43 0c13.41,172.12 19.94,303.28 19.94,393.86l0 699.68 -371.39 0 0 -1552.26 547.85 0 564.53 1078.68 6.52 0c-10.15,-156.53 -14.86,-281.89 -14.86,-376.83l0 -701.85 373.57 0 0 1552.26zm-1593.86 0l-921.78 0 0 -1552.26 921.78 0 0 336.98 -502.56 0 0 243.49 465.25 0 0 336.97 -465.25 0 0 293.5 502.56 0 0 341.32zm-1403.28 -1552.26l469.23 0 -508.72 1552.26 -493.51 0 -506.54 -1552.26 471.4 0 211.24 786.64c43.84,175.01 68.12,296.75 72.47,365.24 4.71,-49.28 14.86,-111.24 29.71,-185.52 14.86,-74.64 27.9,-132.98 39.13,-175.37l215.59 -790.99z"/>
 </g>
</svg>
